<svg width="20" height="20" viewBox="0 0 20 20" fill="none" xmlns="http://www.w3.org/2000/svg">
<g clip-path="url(#clip0)">
<path d="M19.2521 8.8255L9.99509 18.0834L0.738084 8.8255C0.565388 8.65868 0.290141 8.66349 0.123314 8.83618C-0.0393958 9.00468 -0.0393958 9.27177 0.123314 9.44023L9.68813 19.005C9.85789 19.1748 10.1331 19.1748 10.3029 19.005L19.8677 9.44023C20.0345 9.26754 20.0297 8.99229 19.857 8.82546C19.6885 8.66271 19.4214 8.66271 19.2529 8.82546L19.2521 8.8255Z" fill="#607D8B"/>
<path d="M19.2521 0.999777L9.99509 10.2576L0.738084 0.999777C0.565388 0.83295 0.290141 0.837759 0.123314 1.01046C-0.0393958 1.17895 -0.0393958 1.44605 0.123314 1.61455L9.68813 11.1794C9.85789 11.3491 10.1331 11.3491 10.3029 11.1794L19.8677 1.61455C20.0404 1.44772 20.0452 1.17251 19.8784 0.999777C19.7116 0.82708 19.4364 0.822312 19.2636 0.989098C19.26 0.992603 19.2565 0.996149 19.2529 0.999777H19.2521Z" fill="#607D8B"/>
<path d="M9.99431 19.1329C9.87892 19.1331 9.76818 19.0875 9.6865 19.006L0.121682 9.44116C-0.0451452 9.26847 -0.0403356 8.99322 0.132361 8.8264C0.300859 8.66368 0.567953 8.66368 0.736411 8.8264L9.99427 18.0834L19.2513 8.82554C19.424 8.65871 19.6992 8.66352 19.866 8.83622C20.0288 9.00472 20.0288 9.27181 19.866 9.44031L10.3013 19.0051C10.2199 19.0867 10.1095 19.1327 9.99431 19.1329Z" fill="black"/>
<path d="M9.99431 11.3072C9.87892 11.3074 9.76818 11.2617 9.6865 11.1802L0.121682 1.6154C-0.0451452 1.44271 -0.0403356 1.16746 0.132361 1.00063C0.300859 0.837922 0.567953 0.837922 0.736451 1.00063L9.99431 10.2576L19.2513 0.999777C19.4181 0.82708 19.6933 0.822312 19.8661 0.989098C20.0388 1.15588 20.0435 1.43113 19.8768 1.60387C19.8733 1.60749 19.8697 1.61104 19.8661 1.61455L10.3013 11.1794C10.2199 11.2609 10.1095 11.3069 9.99431 11.3072Z" fill="black"/>
</g>
<defs>
<clipPath id="clip0">
<rect width="20" height="20" fill="white"/>
</clipPath>
</defs>
</svg>
