<svg width="320" height="568" viewBox="0 0 320 568" fill="none" xmlns="http://www.w3.org/2000/svg">
<g id="home">
<g id="circle">
<path id="Ellipse 1" d="M294.5 284C294.5 358.282 234.282 418.5 160 418.5C85.7177 418.5 25.5 358.282 25.5 284C25.5 209.718 85.7177 149.5 160 149.5C234.282 149.5 294.5 209.718 294.5 284Z" fill="#0336FF" stroke="#0336FF"/>
<path id="Javascript developer" d="M86.336 302.056H88.52V304.552C88.52 304.84 88.568 305.032 88.664 305.128C88.76 305.208 88.952 305.248 89.24 305.248H89.936C90.224 305.248 90.416 305.208 90.512 305.128C90.608 305.032 90.656 304.84 90.656 304.552V291.976H92.84V304.888C92.84 306.296 92.096 307 90.608 307H88.568C87.08 307 86.336 306.296 86.336 304.888V302.056ZM99.4396 295.288H101.6V307H99.4396V306.064C99.2316 306.688 98.7356 307 97.9516 307H97.0876C95.6476 307 94.9276 306.296 94.9276 304.888V297.424C94.9276 296 95.6476 295.288 97.0876 295.288H97.9516C98.7356 295.288 99.2316 295.6 99.4396 296.224V295.288ZM97.8076 305.248H98.6476C98.9356 305.248 99.1356 305.184 99.2476 305.056C99.3756 304.928 99.4396 304.712 99.4396 304.408V297.88C99.4396 297.576 99.3756 297.36 99.2476 297.232C99.1356 297.104 98.9356 297.04 98.6476 297.04H97.8076C97.5196 297.04 97.3276 297.088 97.2316 297.184C97.1356 297.264 97.0876 297.448 97.0876 297.736V304.552C97.0876 304.84 97.1356 305.032 97.2316 305.128C97.3276 305.208 97.5196 305.248 97.8076 305.248ZM104.92 295.288L106.456 305.176L108.016 295.288H110.176L108.016 307H104.92L102.76 295.288H104.92ZM115.705 295.288H117.865V307H115.705V306.064C115.497 306.688 115.001 307 114.217 307H113.353C111.913 307 111.193 306.296 111.193 304.888V297.424C111.193 296 111.913 295.288 113.353 295.288H114.217C115.001 295.288 115.497 295.6 115.705 296.224V295.288ZM114.073 305.248H114.913C115.201 305.248 115.401 305.184 115.513 305.056C115.641 304.928 115.705 304.712 115.705 304.408V297.88C115.705 297.576 115.641 297.36 115.513 297.232C115.401 297.104 115.201 297.04 114.913 297.04H114.073C113.785 297.04 113.593 297.088 113.497 297.184C113.401 297.264 113.353 297.448 113.353 297.736V304.552C113.353 304.84 113.401 305.032 113.497 305.128C113.593 305.208 113.785 305.248 114.073 305.248ZM123.898 304.648V302.704C123.898 302.416 123.85 302.232 123.754 302.152C123.658 302.056 123.466 302.008 123.178 302.008H121.954C120.466 302.008 119.722 301.304 119.722 299.896V297.424C119.722 296 120.466 295.288 121.954 295.288H123.706C125.21 295.288 125.962 296 125.962 297.424V298.552H123.85V297.64C123.85 297.352 123.802 297.168 123.706 297.088C123.61 296.992 123.418 296.944 123.13 296.944H122.554C122.266 296.944 122.074 296.992 121.978 297.088C121.882 297.168 121.834 297.352 121.834 297.64V299.656C121.834 299.944 121.882 300.136 121.978 300.232C122.074 300.312 122.266 300.352 122.554 300.352H123.802C125.274 300.352 126.01 301.064 126.01 302.488V304.888C126.01 306.296 125.266 307 123.778 307H122.002C120.514 307 119.77 306.296 119.77 304.888V303.736H121.882V304.648C121.882 304.936 121.93 305.128 122.026 305.224C122.122 305.304 122.314 305.344 122.602 305.344H123.178C123.466 305.344 123.658 305.304 123.754 305.224C123.85 305.128 123.898 304.936 123.898 304.648ZM134.485 298.984H132.349V297.736C132.349 297.448 132.301 297.264 132.205 297.184C132.109 297.088 131.917 297.04 131.629 297.04H130.597C130.309 297.04 130.117 297.088 130.021 297.184C129.925 297.264 129.877 297.448 129.877 297.736V304.552C129.877 304.84 129.925 305.032 130.021 305.128C130.117 305.208 130.309 305.248 130.597 305.248H131.629C131.917 305.248 132.109 305.208 132.205 305.128C132.301 305.032 132.349 304.84 132.349 304.552V303.304H134.485V304.888C134.485 306.296 133.733 307 132.229 307H129.949C128.461 307 127.717 306.296 127.717 304.888V297.424C127.717 296 128.461 295.288 129.949 295.288H132.229C133.733 295.288 134.485 296 134.485 297.424V298.984ZM140.331 295.264H140.811V297.136H139.947C138.939 297.136 138.435 297.728 138.435 298.912V307H136.275V295.288H138.435V296.728C138.563 296.312 138.787 295.968 139.107 295.696C139.443 295.408 139.851 295.264 140.331 295.264ZM141.946 293.056V290.92H144.202V293.056H141.946ZM144.154 307H141.994V295.288H144.154V307ZM149.907 295.288H150.747C152.203 295.288 152.931 296 152.931 297.424V304.888C152.931 306.296 152.203 307 150.747 307H149.907C149.123 307 148.627 306.688 148.419 306.064V310.312H146.259V295.288H148.419V296.224C148.627 295.6 149.123 295.288 149.907 295.288ZM150.771 304.552V297.736C150.771 297.448 150.723 297.264 150.627 297.184C150.531 297.088 150.339 297.04 150.051 297.04H149.211C148.923 297.04 148.715 297.104 148.587 297.232C148.475 297.36 148.419 297.576 148.419 297.88V304.408C148.419 304.712 148.475 304.928 148.587 305.056C148.715 305.184 148.923 305.248 149.211 305.248H150.051C150.339 305.248 150.531 305.208 150.627 305.128C150.723 305.032 150.771 304.84 150.771 304.552ZM158.868 297.04H157.26V304.456C157.26 304.744 157.3 304.936 157.38 305.032C157.476 305.112 157.668 305.152 157.956 305.152H158.868V307H157.332C155.828 307 155.076 306.296 155.076 304.888V297.04H153.972V295.288H155.076V293.296H157.26V295.288H158.868V297.04ZM167.994 290.944H170.154V307H167.994V306.064C167.786 306.688 167.29 307 166.506 307H165.642C164.202 307 163.482 306.296 163.482 304.888V297.4C163.482 295.976 164.202 295.264 165.642 295.264H166.506C167.29 295.264 167.786 295.576 167.994 296.2V290.944ZM166.362 305.248H167.202C167.49 305.248 167.69 305.184 167.802 305.056C167.93 304.928 167.994 304.712 167.994 304.408V297.856C167.994 297.552 167.93 297.336 167.802 297.208C167.69 297.08 167.49 297.016 167.202 297.016H166.362C166.074 297.016 165.882 297.064 165.786 297.16C165.69 297.256 165.642 297.44 165.642 297.712V304.552C165.642 304.84 165.69 305.032 165.786 305.128C165.882 305.208 166.074 305.248 166.362 305.248ZM174.459 295.288H176.811C178.315 295.288 179.067 296 179.067 297.424V301.816H174.339V304.6C174.339 304.872 174.387 305.056 174.483 305.152C174.579 305.248 174.771 305.296 175.059 305.296H176.163C176.451 305.296 176.643 305.248 176.739 305.152C176.835 305.056 176.883 304.864 176.883 304.576V303.616H178.995V304.888C178.995 306.296 178.251 307 176.763 307H174.459C172.971 307 172.227 306.296 172.227 304.888V297.424C172.227 296 172.971 295.288 174.459 295.288ZM174.339 300.232H176.931V297.688C176.931 297.416 176.883 297.232 176.787 297.136C176.707 297.04 176.523 296.992 176.235 296.992H175.059C174.771 296.992 174.579 297.04 174.483 297.136C174.387 297.232 174.339 297.416 174.339 297.688V300.232ZM182.123 295.288L183.659 305.176L185.219 295.288H187.379L185.219 307H182.123L179.963 295.288H182.123ZM190.724 295.288H193.076C194.58 295.288 195.332 296 195.332 297.424V301.816H190.604V304.6C190.604 304.872 190.652 305.056 190.748 305.152C190.844 305.248 191.036 305.296 191.324 305.296H192.428C192.716 305.296 192.908 305.248 193.004 305.152C193.1 305.056 193.148 304.864 193.148 304.576V303.616H195.26V304.888C195.26 306.296 194.516 307 193.028 307H190.724C189.236 307 188.492 306.296 188.492 304.888V297.424C188.492 296 189.236 295.288 190.724 295.288ZM190.604 300.232H193.196V297.688C193.196 297.416 193.148 297.232 193.052 297.136C192.972 297.04 192.788 296.992 192.5 296.992H191.324C191.036 296.992 190.844 297.04 190.748 297.136C190.652 297.232 190.604 297.416 190.604 297.688V300.232ZM199.349 307H197.189V290.944H199.349V307ZM203.542 295.288H206.11C207.598 295.288 208.342 296 208.342 297.424V304.888C208.342 306.296 207.598 307 206.11 307H203.542C202.07 307 201.334 306.296 201.334 304.888V297.424C201.334 296 202.07 295.288 203.542 295.288ZM206.206 304.576V297.712C206.206 297.424 206.158 297.232 206.062 297.136C205.966 297.04 205.774 296.992 205.486 296.992H204.166C203.878 296.992 203.686 297.04 203.59 297.136C203.51 297.232 203.47 297.424 203.47 297.712V304.576C203.47 304.864 203.51 305.056 203.59 305.152C203.686 305.248 203.878 305.296 204.166 305.296H205.486C205.774 305.296 205.966 305.248 206.062 305.152C206.158 305.056 206.206 304.864 206.206 304.576ZM213.985 295.288H214.825C216.281 295.288 217.009 296 217.009 297.424V304.888C217.009 306.296 216.281 307 214.825 307H213.985C213.201 307 212.705 306.688 212.497 306.064V310.312H210.337V295.288H212.497V296.224C212.705 295.6 213.201 295.288 213.985 295.288ZM214.849 304.552V297.736C214.849 297.448 214.801 297.264 214.705 297.184C214.609 297.088 214.417 297.04 214.129 297.04H213.289C213.001 297.04 212.793 297.104 212.665 297.232C212.553 297.36 212.497 297.576 212.497 297.88V304.408C212.497 304.712 212.553 304.928 212.665 305.056C212.793 305.184 213.001 305.248 213.289 305.248H214.129C214.417 305.248 214.609 305.208 214.705 305.128C214.801 305.032 214.849 304.84 214.849 304.552ZM221.17 295.288H223.522C225.026 295.288 225.778 296 225.778 297.424V301.816H221.05V304.6C221.05 304.872 221.098 305.056 221.194 305.152C221.29 305.248 221.482 305.296 221.77 305.296H222.874C223.162 305.296 223.354 305.248 223.45 305.152C223.546 305.056 223.594 304.864 223.594 304.576V303.616H225.706V304.888C225.706 306.296 224.962 307 223.474 307H221.17C219.682 307 218.938 306.296 218.938 304.888V297.424C218.938 296 219.682 295.288 221.17 295.288ZM221.05 300.232H223.642V297.688C223.642 297.416 223.594 297.232 223.498 297.136C223.418 297.04 223.234 296.992 222.946 296.992H221.77C221.482 296.992 221.29 297.04 221.194 297.136C221.098 297.232 221.05 297.416 221.05 297.688V300.232ZM231.69 295.264H232.17V297.136H231.306C230.298 297.136 229.794 297.728 229.794 298.912V307H227.634V295.288H229.794V296.728C229.922 296.312 230.146 295.968 230.466 295.696C230.802 295.408 231.21 295.264 231.69 295.264Z" fill="white"/>
<path id="Mateusz Koprowicz" d="M41.156 268H36.62V245.104H42.236L46.016 258.064L49.796 245.104H55.412V268H50.876V252.628L47.924 263.032H44.108L41.156 252.664V268ZM66.223 250.18H71.155V268H66.151V266.236C65.791 267.412 64.843 268 63.307 268H62.443C59.635 268 58.231 266.668 58.231 264.004V254.176C58.231 251.512 59.635 250.18 62.443 250.18H63.307C64.915 250.18 65.887 250.852 66.223 252.196V250.18ZM64.243 264.22H65.071C65.791 264.22 66.151 263.836 66.151 263.068V255.112C66.151 254.344 65.791 253.96 65.071 253.96H64.243C63.595 253.96 63.271 254.26 63.271 254.86V263.32C63.271 263.92 63.595 264.22 64.243 264.22ZM82.0483 253.96H79.7083V263.284C79.7083 263.86 80.0323 264.148 80.6803 264.148H82.0483V268H79.2403C76.2163 268 74.7043 266.668 74.7043 264.004V253.96H72.8323V250.18H74.7043V246.868H79.7083V250.18H82.0483V253.96ZM88.2218 250.18H92.2898C95.3378 250.18 96.8618 251.512 96.8618 254.176V260.476H88.4738V263.536C88.4738 263.848 88.5458 264.076 88.6898 264.22C88.8338 264.34 89.0858 264.4 89.4458 264.4H91.0658C91.4018 264.4 91.6418 264.328 91.7858 264.184C91.9298 264.04 92.0018 263.8 92.0018 263.464V262.276H96.8258V264.004C96.8258 266.668 95.3018 268 92.2538 268H88.2218C85.1978 268 83.6858 266.668 83.6858 264.004V254.176C83.6858 251.512 85.1978 250.18 88.2218 250.18ZM88.4738 257.524H92.0378V254.644C92.0378 254.332 91.9658 254.116 91.8218 253.996C91.6778 253.852 91.4378 253.78 91.1018 253.78H89.4458C89.0858 253.78 88.8338 253.852 88.6898 253.996C88.5458 254.116 88.4738 254.332 88.4738 254.644V257.524ZM107.147 250.18H112.151V268H107.219V265.984C106.883 267.328 105.911 268 104.303 268H103.439C100.631 268 99.2274 266.668 99.2274 264.004V250.18H104.267V263.32C104.267 263.92 104.591 264.22 105.239 264.22H106.067C106.787 264.22 107.147 263.836 107.147 263.068V250.18ZM122.212 263.716V261.7C122.212 261.388 122.14 261.172 121.996 261.052C121.852 260.908 121.6 260.836 121.24 260.836H119.188C116.188 260.836 114.688 259.516 114.688 256.876V254.176C114.688 251.512 116.212 250.18 119.26 250.18H122.32C125.368 250.18 126.892 251.512 126.892 254.176V255.76H122.068V254.464C122.068 254.152 121.996 253.936 121.852 253.816C121.708 253.672 121.456 253.6 121.096 253.6H120.556C120.196 253.6 119.944 253.672 119.8 253.816C119.656 253.936 119.584 254.152 119.584 254.464V256.624C119.584 256.936 119.656 257.164 119.8 257.308C119.944 257.428 120.196 257.488 120.556 257.488H122.608C125.608 257.488 127.108 258.796 127.108 261.412V264.004C127.108 266.668 125.584 268 122.536 268H119.332C116.308 268 114.796 266.668 114.796 264.004V262.456H119.692V263.716C119.692 264.316 120.004 264.616 120.628 264.616H121.24C121.888 264.616 122.212 264.316 122.212 263.716ZM140.441 264.364V268H128.561V264.364L134.861 253.816H128.993V250.18H140.189V253.816L133.817 264.364H140.441ZM164.101 245.104L159.493 256.408L164.101 268H158.557L154.129 256.408L158.557 245.104H164.101ZM148.909 268V245.104H154.021V268H148.909ZM170.135 250.18H174.419C176.003 250.18 177.131 250.528 177.803 251.224C178.499 251.896 178.847 252.88 178.847 254.176V264.004C178.847 265.3 178.499 266.296 177.803 266.992C177.131 267.664 176.003 268 174.419 268H170.135C168.551 268 167.411 267.664 166.715 266.992C166.043 266.296 165.707 265.3 165.707 264.004V254.176C165.707 252.88 166.043 251.896 166.715 251.224C167.411 250.528 168.551 250.18 170.135 250.18ZM173.915 263.5V254.68C173.915 254.08 173.591 253.78 172.943 253.78H171.611C170.963 253.78 170.639 254.08 170.639 254.68V263.5C170.639 264.1 170.963 264.4 171.611 264.4H172.943C173.591 264.4 173.915 264.1 173.915 263.5ZM189.519 250.18H190.419C193.227 250.18 194.631 251.512 194.631 254.176V264.004C194.631 266.668 193.227 268 190.419 268H189.519C188.007 268 187.071 267.412 186.711 266.236V272.788H181.707V250.18H186.639V252.196C186.975 250.852 187.935 250.18 189.519 250.18ZM189.591 263.32V254.86C189.591 254.26 189.267 253.96 188.619 253.96H187.755C187.059 253.96 186.711 254.344 186.711 255.112V263.068C186.711 263.836 187.059 264.22 187.755 264.22H188.619C189.267 264.22 189.591 263.92 189.591 263.32ZM205.741 250.072H206.353V254.428H204.589C203.077 254.428 202.321 255.268 202.321 256.948V268H197.317V250.18H202.249V252.736C202.441 251.944 202.837 251.308 203.437 250.828C204.037 250.324 204.805 250.072 205.741 250.072ZM212.287 250.18H216.571C218.155 250.18 219.283 250.528 219.955 251.224C220.651 251.896 220.999 252.88 220.999 254.176V264.004C220.999 265.3 220.651 266.296 219.955 266.992C219.283 267.664 218.155 268 216.571 268H212.287C210.703 268 209.563 267.664 208.867 266.992C208.195 266.296 207.859 265.3 207.859 264.004V254.176C207.859 252.88 208.195 251.896 208.867 251.224C209.563 250.528 210.703 250.18 212.287 250.18ZM216.067 263.5V254.68C216.067 254.08 215.743 253.78 215.095 253.78H213.763C213.115 253.78 212.791 254.08 212.791 254.68V263.5C212.791 264.1 213.115 264.4 213.763 264.4H215.095C215.743 264.4 216.067 264.1 216.067 263.5ZM240.096 250.18H244.74L241.14 268H235.74L233.58 256.372L231.384 268H226.02L222.528 250.18H227.208L228.936 262.852L231.24 250.18H236.028L238.152 262.78L240.096 250.18ZM246.322 247.804V243.916H251.542V247.804H246.322ZM251.434 268H246.43V250.18H251.434V268ZM266.938 256.588H262.042V254.86C262.042 254.26 261.718 253.96 261.07 253.96H260.134C259.486 253.96 259.162 254.26 259.162 254.86V263.32C259.162 263.92 259.486 264.22 260.134 264.22H261.07C261.718 264.22 262.042 263.92 262.042 263.32V261.592H266.938V264.004C266.938 266.668 265.414 268 262.366 268H258.694C255.646 268 254.122 266.668 254.122 264.004V254.176C254.122 251.512 255.646 250.18 258.694 250.18H262.366C265.414 250.18 266.938 251.512 266.938 254.176V256.588ZM280.117 264.364V268H268.237V264.364L274.537 253.816H268.669V250.18H279.865V253.816L273.493 264.364H280.117Z" fill="white"/>
<g id="laptop">
<g id="Group">
<g id="Group_2">
<path id="Vector" d="M247.124 229.952H245.369V199.028C245.369 197.044 243.755 195.431 241.771 195.431H194.228C192.245 195.431 190.631 197.044 190.631 199.028V229.952H188.875C188.392 229.952 188 230.344 188 230.828V231.876C188 234.464 190.106 236.569 192.694 236.569H231.13C231.613 236.569 232.005 236.177 232.005 235.694C232.005 235.211 231.613 234.819 231.13 234.819H192.694C191.071 234.819 189.751 233.498 189.751 231.876V231.703H210.647V233.261C210.647 233.744 211.039 234.136 211.523 234.136H224.477C224.961 234.136 225.353 233.744 225.353 233.261V231.703H246.249V231.876C246.249 233.498 244.929 234.819 243.306 234.819H237.316C236.832 234.819 236.44 235.211 236.44 235.694C236.44 236.178 236.832 236.569 237.316 236.569H243.306C245.894 236.569 248 234.464 248 231.876V230.828C248 230.344 247.608 229.952 247.124 229.952ZM223.602 232.385H212.398V231.703H223.602V232.385ZM243.618 229.878H192.382V199.028C192.382 198.01 193.21 197.181 194.229 197.181H241.771C242.79 197.181 243.618 198.01 243.618 199.028V229.878Z" fill="white" fill-opacity="0.4"/>
</g>
</g>
<g id="Group_3">
<g id="Group_4">
<path id="Vector_2" d="M239.598 198.845H196.401C194.974 198.845 193.812 200.007 193.812 201.435V210.748C193.812 211.232 194.204 211.623 194.688 211.623C195.171 211.623 195.563 211.232 195.563 210.748V201.435C195.563 200.972 195.939 200.596 196.401 200.596H239.598C240.06 200.596 240.436 200.972 240.436 201.435V226.572H195.563V217.05C195.563 216.567 195.171 216.175 194.688 216.175C194.204 216.175 193.812 216.567 193.812 217.05V227.448C193.812 227.931 194.204 228.323 194.688 228.323H241.312C241.795 228.323 242.187 227.931 242.187 227.448V201.435C242.187 200.007 241.026 198.845 239.598 198.845Z" fill="white" fill-opacity="0.4"/>
</g>
</g>
</g>
<g id="notebook">
<g id="outline">
<path id="Vector_3" d="M41.9375 289.062H62.5625C62.8111 289.062 63.0496 288.964 63.2254 288.788C63.4012 288.612 63.5 288.374 63.5 288.125C63.5 287.876 63.4012 287.638 63.2254 287.462C63.0496 287.286 62.8111 287.188 62.5625 287.188H41.9375C41.6889 287.188 41.4504 287.286 41.2746 287.462C41.0988 287.638 41 287.876 41 288.125C41 288.374 41.0988 288.612 41.2746 288.788C41.4504 288.964 41.6889 289.062 41.9375 289.062Z" fill="white" fill-opacity="0.4"/>
<path id="Vector_4" d="M41.9375 294.688H62.5625C62.8111 294.688 63.0496 294.589 63.2254 294.413C63.4012 294.237 63.5 293.999 63.5 293.75C63.5 293.501 63.4012 293.263 63.2254 293.087C63.0496 292.911 62.8111 292.812 62.5625 292.812H41.9375C41.6889 292.812 41.4504 292.911 41.2746 293.087C41.0988 293.263 41 293.501 41 293.75C41 293.999 41.0988 294.237 41.2746 294.413C41.4504 294.589 41.6889 294.688 41.9375 294.688Z" fill="white" fill-opacity="0.4"/>
<path id="Vector_5" d="M41.9375 300.312H62.5625C62.8111 300.312 63.0496 300.214 63.2254 300.038C63.4012 299.862 63.5 299.624 63.5 299.375C63.5 299.126 63.4012 298.888 63.2254 298.712C63.0496 298.536 62.8111 298.438 62.5625 298.438H41.9375C41.6889 298.438 41.4504 298.536 41.2746 298.712C41.0988 298.888 41 299.126 41 299.375C41 299.624 41.0988 299.862 41.2746 300.038C41.4504 300.214 41.6889 300.312 41.9375 300.312Z" fill="white" fill-opacity="0.4"/>
<path id="Vector_6" d="M41.9375 305.938H62.5625C62.8111 305.938 63.0496 305.839 63.2254 305.663C63.4012 305.487 63.5 305.249 63.5 305C63.5 304.751 63.4012 304.513 63.2254 304.337C63.0496 304.161 62.8111 304.062 62.5625 304.062H41.9375C41.6889 304.062 41.4504 304.161 41.2746 304.337C41.0988 304.513 41 304.751 41 305C41 305.249 41.0988 305.487 41.2746 305.663C41.4504 305.839 41.6889 305.938 41.9375 305.938Z" fill="white" fill-opacity="0.4"/>
<path id="Vector_7" d="M41.9375 311.562H49.4375C49.6861 311.562 49.9246 311.464 50.1004 311.288C50.2762 311.112 50.375 310.874 50.375 310.625C50.375 310.376 50.2762 310.138 50.1004 309.962C49.9246 309.786 49.6861 309.688 49.4375 309.688H41.9375C41.6889 309.688 41.4504 309.786 41.2746 309.962C41.0988 310.138 41 310.376 41 310.625C41 310.874 41.0988 311.112 41.2746 311.288C41.4504 311.464 41.6889 311.562 41.9375 311.562Z" fill="white" fill-opacity="0.4"/>
<path id="Vector_8" d="M78.9842 299.025C78.3405 298.649 77.5737 298.543 76.8522 298.731C76.1307 298.92 75.5133 299.387 75.1357 300.03L72.875 303.887V280.625C72.875 280.376 72.7762 280.138 72.6004 279.962C72.4246 279.786 72.1861 279.688 71.9375 279.688H64.8258C64.8258 279.688 62.0089 276.819 61.8962 276.915C61.8082 276.889 61.7169 276.875 61.625 276.875H34.4375C34.1888 276.875 33.9504 276.974 33.7746 277.15C33.5988 277.325 33.5 277.564 33.5 277.812V280.744C32.6947 280.951 31.9813 281.421 31.4719 282.078C30.9625 282.735 30.6861 283.543 30.6861 284.375C30.6861 285.207 30.9625 286.015 31.4719 286.672C31.9813 287.329 32.6947 287.799 33.5 288.006V290.119C32.6947 290.326 31.9813 290.796 31.4719 291.453C30.9625 292.11 30.6861 292.918 30.6861 293.75C30.6861 294.582 30.9625 295.39 31.4719 296.047C31.9813 296.704 32.6947 297.174 33.5 297.381V299.494C32.6947 299.701 31.9813 300.171 31.4719 300.828C30.9625 301.485 30.6861 302.293 30.6861 303.125C30.6861 303.957 30.9625 304.765 31.4719 305.422C31.9813 306.079 32.6947 306.549 33.5 306.756V307.931C32.6947 308.139 31.9813 308.608 31.4719 309.266C30.9625 309.923 30.6861 310.731 30.6861 311.562C30.6861 312.394 30.9625 313.202 31.4719 313.859C31.9813 314.517 32.6947 314.986 33.5 315.194V320.938C33.5 321.186 33.5988 321.425 33.7746 321.6C33.9504 321.776 34.1888 321.875 34.4375 321.875H35.375V324.688C35.375 324.936 35.4738 325.175 35.6496 325.35C35.8254 325.526 36.0638 325.625 36.3125 325.625H60.1358L59.4933 326.721C59.4358 326.82 59.3969 326.928 59.3784 327.04C59.3775 327.045 59.3759 327.05 59.3751 327.056L59.3728 327.071V327.074L58.6228 332.048C58.5948 332.233 58.6231 332.422 58.7038 332.592C58.7846 332.761 58.9141 332.902 59.0758 332.996C59.2375 333.091 59.4238 333.135 59.6108 333.123C59.7977 333.111 59.9768 333.043 60.1248 332.928L64.1124 329.832C64.3679 329.634 64.4927 329.512 64.4729 329.349L66.6554 325.625H71.9375C72.1861 325.625 72.4246 325.526 72.6004 325.35C72.7762 325.175 72.875 324.936 72.875 324.688V315.012L79.9883 302.874C80.3646 302.23 80.4702 301.463 80.282 300.742C80.0937 300.02 79.627 299.403 78.9842 299.025ZM77.3254 300.545C77.5048 300.498 77.6941 300.505 77.8693 300.566C78.0445 300.627 78.1977 300.738 78.3096 300.886C78.4215 301.034 78.4871 301.211 78.498 301.396C78.5089 301.582 78.4647 301.766 78.371 301.926L77.8969 302.734L76.2798 301.786L76.7539 300.978C76.8158 300.871 76.8982 300.778 76.9963 300.704C77.0944 300.63 77.2062 300.575 77.3254 300.545ZM63.2026 327.808L61.5854 326.86L73.9093 305.831L75.5265 306.779L63.2026 327.808ZM62.5625 280.076L65.9241 283.438H62.5625V280.076ZM74.8573 304.213L75.3312 303.404L76.949 304.352L76.475 305.161L74.8573 304.213ZM71 281.562V306.875C71.0001 306.936 71.006 306.996 71.0178 307.056L69.125 310.286V284.375C69.1251 284.252 69.101 284.13 69.054 284.017C69.0071 283.903 68.9381 283.8 68.8512 283.713L68.8504 283.712L66.7008 281.562H71ZM35.375 278.75H60.6875V284.375C60.6875 284.624 60.7863 284.862 60.9621 285.038C61.1379 285.214 61.3763 285.312 61.625 285.312H67.25V313.486L63.4323 320H35.375V315.194C36.024 315.027 36.6163 314.689 37.0902 314.215C37.5641 313.741 37.9022 313.148 38.0692 312.499C38.1312 312.258 38.095 312.003 37.9685 311.789C37.842 311.575 37.6356 311.419 37.3947 311.357C37.2754 311.327 37.1513 311.32 37.0294 311.337C36.9074 311.354 36.7901 311.396 36.6841 311.458C36.4699 311.585 36.3148 311.791 36.2528 312.032C36.1907 312.273 36.0811 312.499 35.9303 312.697C35.7796 312.895 35.5908 313.061 35.375 313.186V306.756C36.024 306.589 36.6163 306.251 37.0902 305.777C37.5641 305.303 37.9022 304.711 38.0692 304.062C38.1312 303.821 38.095 303.565 37.9685 303.351C37.842 303.137 37.6356 302.982 37.3947 302.92C37.1538 302.858 36.8982 302.894 36.6841 303.021C36.4699 303.147 36.3148 303.354 36.2528 303.594C36.1907 303.836 36.0811 304.062 35.9303 304.26C35.7796 304.458 35.5908 304.624 35.375 304.748V297.381C36.024 297.214 36.6163 296.876 37.0902 296.402C37.5641 295.928 37.9022 295.336 38.0692 294.687C38.1312 294.446 38.095 294.19 37.9685 293.976C37.842 293.762 37.6356 293.607 37.3947 293.545C37.1538 293.483 36.8982 293.519 36.6841 293.646C36.4699 293.772 36.3148 293.979 36.2528 294.219C36.1907 294.461 36.0811 294.687 35.9303 294.885C35.7796 295.083 35.5908 295.249 35.375 295.373V288.006C36.024 287.839 36.6163 287.501 37.0902 287.027C37.5641 286.553 37.9022 285.961 38.0692 285.312C38.1312 285.071 38.095 284.815 37.9685 284.601C37.842 284.387 37.6356 284.232 37.3947 284.17C37.1538 284.108 36.8982 284.144 36.6841 284.271C36.4699 284.397 36.3148 284.604 36.2528 284.844C36.1907 285.086 36.0811 285.312 35.9303 285.51C35.7796 285.708 35.5908 285.874 35.375 285.998V278.75ZM32.5625 284.375C32.5629 284.046 32.6498 283.723 32.8143 283.439C32.9789 283.154 33.2153 282.918 33.5 282.754V285.996C33.2153 285.832 32.9789 285.596 32.8143 285.311C32.6498 285.027 32.5629 284.704 32.5625 284.375ZM32.5625 293.75C32.5629 293.421 32.6498 293.098 32.8143 292.814C32.9789 292.529 33.2153 292.293 33.5 292.129V295.371C33.2153 295.207 32.9789 294.971 32.8143 294.686C32.6498 294.402 32.5629 294.079 32.5625 293.75ZM32.5625 303.125C32.5629 302.796 32.6498 302.473 32.8143 302.189C32.9789 301.904 33.2153 301.668 33.5 301.504V304.746C33.2153 304.582 32.9789 304.346 32.8143 304.061C32.6498 303.777 32.5629 303.454 32.5625 303.125ZM32.5625 311.562C32.5629 311.234 32.6498 310.911 32.8143 310.626C32.9789 310.342 33.2153 310.106 33.5 309.941V313.184C33.2153 313.019 32.9789 312.783 32.8143 312.499C32.6498 312.214 32.5629 311.891 32.5625 311.562ZM37.25 323.75V321.875H62.3334L61.2345 323.75H37.25ZM61.0228 328.704L61.8687 329.2L60.8258 330.01L61.0228 328.704ZM71 323.75H67.7539L71 318.212V323.75Z" fill="white" fill-opacity="0.4"/>
</g>
</g>
<g id="settings">
<g id="Group_5">
<g id="Group_6">
<path id="Vector_9" d="M247 345H245.9C245.486 345.001 245.116 344.743 244.974 344.354C244.852 344.034 244.721 343.721 244.58 343.411C244.405 343.034 244.485 342.588 244.78 342.295L245.564 341.51C246.728 340.336 246.726 338.442 245.559 337.271L242.733 334.445C241.56 333.279 239.666 333.279 238.493 334.445L237.709 335.228C237.416 335.522 236.97 335.602 236.593 335.428C236.283 335.287 235.97 335.156 235.649 335.028C235.258 334.887 234.999 334.515 235 334.1V333C235 331.343 233.657 330 232 330H228C226.343 330 225 331.343 225 333V334.1C225.001 334.514 224.743 334.884 224.354 335.026C224.034 335.148 223.721 335.279 223.411 335.42C223.034 335.594 222.588 335.514 222.295 335.22L221.51 334.436C220.337 333.271 218.444 333.271 217.271 334.436L214.445 337.271C213.279 338.444 213.279 340.338 214.445 341.511L215.228 342.295C215.523 342.588 215.603 343.034 215.428 343.411C215.287 343.721 215.156 344.034 215.033 344.355C214.89 344.746 214.516 345.004 214.1 345H213C211.343 345 210 346.343 210 348V352C210 353.657 211.343 355 213 355H214.1C214.514 354.999 214.884 355.257 215.026 355.646C215.148 355.966 215.279 356.279 215.42 356.589C215.595 356.966 215.515 357.412 215.22 357.705L214.436 358.49C213.271 359.663 213.271 361.556 214.436 362.729L217.262 365.555C218.435 366.721 220.329 366.721 221.502 365.555L222.286 364.772C222.579 364.478 223.025 364.398 223.402 364.572C223.712 364.713 224.025 364.844 224.346 364.972C224.739 365.111 225.001 365.483 225 365.9V367C225 368.657 226.343 370 228 370H232C233.657 370 235 368.657 235 367V365.9C234.999 365.486 235.257 365.116 235.646 364.974C235.966 364.852 236.279 364.721 236.589 364.58C236.966 364.406 237.412 364.486 237.705 364.78L238.49 365.564C239.664 366.727 241.557 366.725 242.729 365.559L245.555 362.733C246.721 361.56 246.721 359.666 245.555 358.493L244.772 357.709C244.477 357.416 244.397 356.97 244.572 356.593C244.713 356.283 244.844 355.97 244.972 355.649C245.113 355.258 245.485 354.999 245.9 355H247C248.657 355 250 353.657 250 352V348C250 346.343 248.657 345 247 345ZM248 352C248 352.552 247.552 353 247 353H245.9C244.657 353.005 243.544 353.773 243.1 354.934C242.994 355.214 242.879 355.49 242.756 355.761C242.242 356.896 242.48 358.231 243.356 359.117L244.138 359.9C244.529 360.29 244.529 360.924 244.139 361.314C244.138 361.315 244.138 361.315 244.138 361.315L241.312 364.141C240.922 364.531 240.288 364.531 239.898 364.141L239.114 363.358C238.228 362.482 236.893 362.243 235.758 362.758C235.487 362.881 235.211 362.996 234.933 363.102C233.773 363.546 233.005 364.658 233 365.9V367C233 367.552 232.552 368 232 368H228C227.448 368 227 367.552 227 367V365.9C226.995 364.657 226.227 363.544 225.066 363.1C224.786 362.994 224.51 362.879 224.239 362.756C223.104 362.242 221.77 362.481 220.883 363.356L220.1 364.138C219.71 364.529 219.076 364.529 218.686 364.139C218.686 364.138 218.685 364.138 218.685 364.138L215.859 361.315C215.469 360.924 215.469 360.292 215.859 359.901L216.642 359.117C217.518 358.231 217.756 356.896 217.242 355.761C217.119 355.49 217.004 355.214 216.898 354.936C216.455 353.775 215.343 353.006 214.1 353H213C212.448 353 212 352.552 212 352V348C212 347.448 212.448 347 213 347H214.1C215.343 346.995 216.456 346.227 216.9 345.066C217.006 344.786 217.121 344.51 217.244 344.239C217.758 343.104 217.52 341.769 216.644 340.883L215.858 340.1C215.467 339.71 215.467 339.076 215.857 338.686C215.858 338.685 215.858 338.685 215.858 338.685L218.684 335.859C219.075 335.469 219.707 335.469 220.098 335.859L220.882 336.642C221.768 337.518 223.103 337.757 224.238 337.242C224.509 337.119 224.785 337.004 225.063 336.898C226.225 336.455 226.994 335.343 227 334.1V333C227 332.448 227.448 332 228 332H232C232.552 332 233 332.448 233 333V334.1C233.005 335.343 233.773 336.456 234.934 336.9C235.214 337.006 235.49 337.121 235.761 337.244C236.896 337.759 238.231 337.52 239.117 336.644L239.9 335.862C240.292 335.474 240.923 335.474 241.315 335.862L244.141 338.688C244.531 339.078 244.531 339.711 244.141 340.102L243.358 340.886C242.483 341.773 242.244 343.107 242.758 344.242C242.881 344.513 242.996 344.789 243.102 345.067C243.546 346.227 244.658 346.995 245.9 347H247C247.552 347 248 347.448 248 348V352Z" fill="white" fill-opacity="0.4"/>
</g>
</g>
<g id="Group_7">
<g id="Group_8">
<path id="Vector_10" d="M238.98 349.6C238.97 349.36 238.953 349.121 238.924 348.883C238.892 348.627 238.854 348.373 238.801 348.124C238.766 347.961 238.72 347.8 238.676 347.638C238.62 347.432 238.557 347.229 238.487 347.029C238.438 346.89 238.387 346.752 238.335 346.615C238.206 346.295 238.059 345.982 237.894 345.679C237.881 345.656 237.873 345.631 237.86 345.608C237.6 345.145 237.299 344.706 236.96 344.297C236.931 344.261 236.898 344.227 236.868 344.192C236.73 344.029 236.588 343.871 236.439 343.72C236.361 343.639 236.279 343.563 236.197 343.485C236.097 343.392 235.997 343.3 235.897 343.212C235.776 343.107 235.652 343.005 235.526 342.906L235.362 342.784C233.815 341.625 231.933 340.999 230 341C229.9 341 229.8 341.015 229.7 341.019C229.487 341.025 229.273 341.037 229.058 341.059C228.945 341.071 228.831 341.084 228.718 341.1C228.392 341.143 228.069 341.203 227.749 341.281C222.934 342.525 220.039 347.437 221.283 352.253C222.103 355.426 224.582 357.903 227.756 358.72C227.772 358.72 227.789 358.725 227.806 358.729C228.151 358.815 228.501 358.882 228.854 358.929C229.087 358.958 229.32 358.964 229.554 358.975C229.71 358.983 229.854 359.006 230.017 359.006C230.302 359.006 230.598 358.987 230.9 358.957C230.932 358.957 230.964 358.948 231 358.944C231.243 358.917 231.489 358.881 231.74 358.831C231.84 358.812 231.933 358.787 232.029 358.765C232.205 358.724 232.38 358.681 232.56 358.628C232.7 358.586 232.836 358.537 232.973 358.489C233.11 358.441 233.252 358.389 233.394 358.335C233.536 358.281 233.655 358.219 233.784 358.159C233.952 358.082 234.119 358.006 234.284 357.916H234.29C235.223 357.416 236.085 356.794 236.853 356.065C237.06 355.871 237.241 355.651 237.389 355.409C238.17 354.158 238.682 352.758 238.895 351.299C238.923 351.106 238.948 350.913 238.963 350.716C238.977 350.535 238.987 350.355 238.991 350.175C238.991 350.118 238.999 350.064 238.999 350.007C239 349.866 238.986 349.736 238.98 349.6ZM236.987 350.255C236.987 350.338 236.98 350.421 236.975 350.503C236.957 350.745 236.926 350.987 236.885 351.23C236.511 353.309 235.22 355.109 233.371 356.13C233.247 356.195 233.125 356.256 233.003 356.312L232.92 356.352C232.339 356.616 231.726 356.801 231.096 356.904C231.052 356.911 231.007 356.919 230.962 356.925C230.837 356.943 230.714 356.958 230.592 356.969C230.431 356.983 230.269 356.991 230.104 356.994C230.034 356.994 229.965 356.994 229.895 356.994C229.658 356.991 229.422 356.977 229.187 356.95L229.067 356.936C228.792 356.9 228.519 356.849 228.25 356.782C224.505 355.823 222.246 352.01 223.204 348.265C223.838 345.79 225.769 343.857 228.243 343.221V343.22C228.818 343.075 229.408 343.001 230 343C230.286 343.002 230.572 343.021 230.855 343.058C230.931 343.067 231.006 343.081 231.081 343.092C231.297 343.126 231.511 343.169 231.722 343.223C231.791 343.241 231.86 343.257 231.928 343.276C232.46 343.429 232.972 343.645 233.453 343.918C233.53 343.963 233.605 344.01 233.681 344.057C233.839 344.157 233.992 344.257 234.143 344.371C234.224 344.43 234.306 344.488 234.384 344.551C234.58 344.708 234.768 344.875 234.947 345.051C235.018 345.123 235.083 345.202 235.152 345.277C235.267 345.402 235.379 345.53 235.486 345.665C235.56 345.758 235.631 345.854 235.701 345.951C235.801 346.095 235.901 346.245 235.991 346.397C236.041 346.48 236.091 346.561 236.142 346.646C236.271 346.883 236.386 347.128 236.486 347.379C236.526 347.479 236.56 347.579 236.596 347.679C236.661 347.863 236.717 348.049 236.766 348.237C236.791 348.337 236.819 348.426 236.84 348.523C236.898 348.793 236.941 349.067 236.967 349.342C236.973 349.415 236.973 349.489 236.978 349.562C236.992 349.792 236.996 350.023 236.987 350.255Z" fill="white" fill-opacity="0.4"/>
</g>
</g>
<g id="Group_9">
<g id="Group_10">
<path id="Vector_11" d="M267 331H263.855C263.436 331.004 263.06 330.74 262.923 330.344C262.613 329.415 262.238 328.509 261.8 327.633C261.614 327.255 261.692 326.8 261.992 326.504L264.222 324.271C265.392 323.1 265.392 321.201 264.222 320.03L259.97 315.785C258.799 314.615 256.9 314.615 255.729 315.785L253.5 318.013C253.205 318.313 252.75 318.391 252.372 318.206C251.496 317.766 250.589 317.389 249.66 317.077C249.262 316.941 248.996 316.565 249 316.145V313C249 311.343 247.657 310 246 310H240C238.343 310 237 311.343 237 313V316.145C237.004 316.564 236.74 316.94 236.344 317.077C235.415 317.389 234.509 317.766 233.633 318.205C233.255 318.391 232.799 318.314 232.504 318.013L230.271 315.783C229.098 314.616 227.203 314.616 226.03 315.783L221.786 320.027C220.615 321.199 220.615 323.097 221.786 324.269L225.065 327.554C225.462 327.938 226.095 327.928 226.479 327.531C226.854 327.145 226.855 326.53 226.481 326.142L223.2 322.858C222.81 322.467 222.81 321.835 223.2 321.444L227.444 317.2C227.834 316.81 228.467 316.81 228.858 317.2L231.092 319.43C231.996 320.339 233.381 320.567 234.528 319.994C235.32 319.597 236.139 319.257 236.979 318.975C238.191 318.565 239.005 317.425 239 316.145V313C239 312.448 239.448 312 240 312H246C246.552 312 247 312.448 247 313V316.145C246.995 317.425 247.809 318.564 249.021 318.974C249.861 319.256 250.681 319.597 251.473 319.994C252.62 320.564 254.003 320.336 254.908 319.429L257.142 317.2C257.532 316.81 258.165 316.81 258.556 317.2L262.8 321.445C263.19 321.835 263.19 322.468 262.8 322.858L260.57 325.092C259.662 325.996 259.434 327.381 260.006 328.528C260.403 329.32 260.743 330.139 261.025 330.979C261.435 332.191 262.575 333.006 263.855 333H267C267.552 333 268 333.448 268 334V340C268 340.552 267.552 341 267 341H263.855C262.575 340.995 261.436 341.809 261.026 343.021C260.744 343.861 260.403 344.681 260.006 345.473C259.435 346.62 259.663 348.004 260.571 348.908L262.801 351.142C263.191 351.532 263.191 352.166 262.801 352.556L258.555 356.8C258.165 357.19 257.532 357.19 257.142 356.8L253.856 353.521C253.472 353.124 252.839 353.114 252.442 353.499C252.045 353.883 252.035 354.516 252.419 354.912C252.427 354.921 252.436 354.929 252.444 354.937L255.729 358.216C256.9 359.387 258.799 359.387 259.97 358.216L264.214 353.973C265.385 352.801 265.385 350.903 264.214 349.731L261.987 347.5C261.687 347.204 261.609 346.75 261.794 346.372C262.234 345.496 262.611 344.59 262.923 343.66C263.059 343.262 263.435 342.996 263.855 343H267C268.657 343 270 341.657 270 340V334C270 332.343 268.657 331 267 331Z" fill="white" fill-opacity="0.4"/>
</g>
</g>
<g id="Group_11">
<g id="Group_12">
<path id="Vector_12" d="M252.192 327.808C247.112 322.739 238.888 322.739 233.808 327.808C233.424 328.205 233.435 328.838 233.833 329.222C234.22 329.596 234.834 329.596 235.222 329.222C239.489 324.898 246.454 324.851 250.778 329.118C255.103 333.385 255.149 340.349 250.882 344.674C250.848 344.709 250.813 344.743 250.778 344.778C250.381 345.162 250.37 345.795 250.754 346.192C251.137 346.589 251.77 346.6 252.168 346.216C252.176 346.208 252.184 346.2 252.192 346.192C257.261 341.112 257.261 332.888 252.192 327.808Z" fill="white" fill-opacity="0.4"/>
</g>
</g>
</g>
</g>
<g id="border">
<circle id="Ellipse 2" cx="160" cy="284" r="153.5" stroke="#0336FF" stroke-width="3" stroke-dasharray="6 6"/>
</g>
<g id="about">
<rect x="10" y="89" width="70" height="60" fill="#FFDE03"/>
<path id="Vector_13" d="M52 144H18C16.3457 144 15 143.014 15 141.803V105.152C15 103.941 16.3457 102.955 18 102.955H23.748C24.3003 102.955 24.748 103.283 24.748 103.688C24.748 104.092 24.3003 104.42 23.748 104.42H18C17.4485 104.42 17 104.748 17 105.152V141.803C17 142.207 17.4485 142.535 18 142.535H52C52.5515 142.535 53 142.207 53 141.803V124.762H30C28.3457 124.762 27 123.776 27 122.564V96.1973C27 94.9857 28.3457 94 30 94H60C61.6543 94 63 94.9857 63 96.1973V103.521C63 103.926 62.5523 104.254 62 104.254C61.4477 104.254 61 103.926 61 103.521V96.1973C61 95.7934 60.5515 95.4648 60 95.4648H30C29.4485 95.4648 29 95.7934 29 96.1973V122.564C29 122.968 29.4485 123.297 30 123.297H60C60.5515 123.297 61 122.968 61 122.564V106.451C61 106.047 61.4477 105.719 62 105.719H68C68.5523 105.719 69 106.047 69 106.451C69 106.856 68.5523 107.184 68 107.184H63V110.113H68C68.5523 110.113 69 110.441 69 110.846C69 111.25 68.5523 111.578 68 111.578H63V114.508H68C68.5523 114.508 69 114.836 69 115.24C69 115.645 68.5523 115.973 68 115.973H63V118.902H68C68.5523 118.902 69 119.23 69 119.635C69 120.039 68.5523 120.367 68 120.367H63V122.564C63 122.821 62.9396 123.068 62.8287 123.297H68C68.5523 123.297 69 123.625 69 124.029C69 124.434 68.5523 124.762 68 124.762H55V127.691H68C68.5523 127.691 69 128.019 69 128.424C69 128.828 68.5523 129.156 68 129.156H55V133.746H72C72.5515 133.746 73 133.418 73 133.014V100.758C73 100.354 72.5515 100.025 72 100.025H66C65.4477 100.025 65 99.6976 65 99.293C65 98.8884 65.4477 98.5605 66 98.5605H72C73.6543 98.5605 75 99.5463 75 100.758V133.014C75 134.225 73.6543 135.211 72 135.211H55V139.605H66C66.5515 139.605 67 139.277 67 138.873V137.408C67 137.004 67.4477 136.676 68 136.676C68.5523 136.676 69 137.004 69 137.408V138.873C69 140.085 67.6543 141.07 66 141.07H55V141.803C55 143.014 53.6543 144 52 144ZM58 121.832H32C31.4477 121.832 31 121.504 31 121.1V118.555C31 114.792 34.3973 113.931 36.878 113.302C38.9253 112.783 40.0879 112.433 40.2928 111.305C38.0859 110.201 36.6345 108.344 36.6345 106.243V103.223C36.6345 99.8442 40.3873 97.0957 45 97.0957C49.6127 97.0957 53.3655 99.8443 53.3655 103.223V106.243C53.3655 108.344 51.9143 110.201 49.7072 111.305C49.9121 112.433 51.0747 112.783 53.122 113.302C55.6027 113.931 59 114.792 59 118.555V121.1C59 121.504 58.5523 121.832 58 121.832ZM33 120.367H57V118.555C57 115.835 54.8997 115.302 52.4679 114.686C50.6719 114.231 48.5067 113.682 47.8633 112C46.9696 112.239 46.0053 112.37 45 112.37C43.9947 112.37 43.0304 112.239 42.1367 112C41.4933 113.682 39.3281 114.231 37.5321 114.686C35.1003 115.303 33 115.835 33 118.555V120.367ZM45 98.5605C41.4901 98.5605 38.6345 100.652 38.6345 103.223V106.243C38.6345 108.813 41.4901 110.905 45 110.905C48.5099 110.905 51.3655 108.813 51.3655 106.243V103.223C51.3655 100.652 48.5099 98.5605 45 98.5605Z" fill="#FF0266"/>
</g>
<g id="arrow" clip-path="url(#clip0)">
<g id="Group_13">
<path id="Vector_14" d="M50.2521 66.8255L40.9951 76.0834L31.7381 66.8255C31.5654 66.6587 31.2901 66.6635 31.1233 66.8362C30.9606 67.0047 30.9606 67.2718 31.1233 67.4402L40.6881 77.005C40.8579 77.1748 41.1331 77.1748 41.3029 77.005L50.8677 67.4402C51.0345 67.2675 51.0297 66.9923 50.857 66.8255C50.6885 66.6627 50.4214 66.6627 50.2529 66.8255L50.2521 66.8255Z" fill="#607D8B"/>
<path id="Vector_15" d="M50.2521 58.9998L40.9951 68.2576L31.7381 58.9998C31.5654 58.8329 31.2901 58.8378 31.1233 59.0105C30.9606 59.179 30.9606 59.446 31.1233 59.6145L40.6881 69.1794C40.8579 69.3491 41.1331 69.3491 41.3029 69.1794L50.8677 59.6145C51.0404 59.4477 51.0452 59.1725 50.8784 58.9998C50.7116 58.8271 50.4364 58.8223 50.2636 58.9891C50.26 58.9926 50.2565 58.9961 50.2529 58.9998H50.2521Z" fill="#607D8B"/>
</g>
<path id="Vector_16" d="M40.9943 77.1329C40.8789 77.1331 40.7682 77.0875 40.6865 77.006L31.1217 67.4412C30.9549 67.2685 30.9597 66.9932 31.1324 66.8264C31.3009 66.6637 31.568 66.6637 31.7364 66.8264L40.9943 76.0834L50.2513 66.8255C50.424 66.6587 50.6992 66.6635 50.866 66.8362C51.0288 67.0047 51.0288 67.2718 50.866 67.4403L41.3013 77.0051C41.2199 77.0867 41.1095 77.1327 40.9943 77.1329Z" fill="black"/>
<path id="Vector_17" d="M40.9943 69.3072C40.8789 69.3074 40.7682 69.2617 40.6865 69.1802L31.1217 59.6154C30.9549 59.4427 30.9597 59.1675 31.1324 59.0006C31.3009 58.8379 31.568 58.8379 31.7365 59.0006L40.9943 68.2576L50.2513 58.9998C50.4181 58.8271 50.6933 58.8223 50.8661 58.9891C51.0388 59.1559 51.0435 59.4311 50.8768 59.6039C50.8733 59.6075 50.8697 59.611 50.8661 59.6145L41.3013 69.1794C41.2199 69.2609 41.1095 69.3069 40.9943 69.3072Z" fill="black"/>
</g>
<g id="projects">
<rect x="238" y="89" width="70" height="60" fill="#FFDE03"/>
<g id="projects_2">
<path id="Vector_18" d="M296.71 111.373H287.395V105.598C287.393 105.579 287.39 105.559 287.386 105.54C287.383 105.356 287.297 105.18 287.147 105.048L278.689 97.7843C278.666 97.7697 278.642 97.756 278.618 97.7436C278.564 97.704 278.505 97.6703 278.441 97.6434C278.412 97.6326 278.381 97.6235 278.35 97.6158C278.28 97.595 278.207 97.5826 278.133 97.5787C278.115 97.5794 278.098 97.5714 278.081 97.5714H259.452C258.984 97.5714 258.605 97.8967 258.605 98.2978V107.015H249.29C247.887 107.015 246.75 107.99 246.75 109.194V138.249C246.75 139.453 247.887 140.429 249.29 140.429H296.71C298.113 140.429 299.25 139.453 299.25 138.249V113.552C299.25 112.349 298.113 111.373 296.71 111.373ZM278.927 100.052L284.471 104.835H278.927V100.052ZM260.298 99.0242H277.234V105.562C277.234 105.963 277.613 106.288 278.081 106.288H285.702V111.373H274.197L269.365 107.227C269.206 107.091 268.991 107.015 268.766 107.015H260.298V99.0242ZM297.556 138.249C297.556 138.651 297.177 138.976 296.71 138.976H249.29C248.823 138.976 248.444 138.651 248.444 138.249V109.194C248.444 108.793 248.823 108.467 249.29 108.467H268.416L273.248 112.613C273.407 112.749 273.622 112.826 273.847 112.826H296.71C297.177 112.826 297.556 113.151 297.556 113.552V138.249Z" fill="#FF0266"/>
<path id="Vector_19" d="M254.371 136.07H253.524L251.831 134.617V133.891C251.831 133.49 251.452 133.165 250.984 133.165C250.516 133.165 250.137 133.49 250.137 133.891V136.797C250.137 137.198 250.516 137.523 250.984 137.523H254.371C254.839 137.523 255.218 137.198 255.218 136.797C255.218 136.395 254.839 136.07 254.371 136.07Z" fill="#FF0266"/>
</g>
</g>
<g id="skills">
<rect x="130" y="63" width="70" height="66" fill="#FFDE03"/>
<g id="skills_2">
<path id="Vector_20" d="M194.973 122.829L192.124 112.202C192.081 112.037 191.99 111.885 191.862 111.764L174.841 95.8846L177.281 93.608C177.598 93.3001 177.985 93.0625 178.413 92.9124C178.841 92.7624 179.3 92.7037 179.756 92.7407C181.877 92.9677 184.025 92.7075 186.013 91.9827C188.002 91.2579 189.77 90.0906 191.164 88.5823C192.559 87.0741 193.537 85.2706 194.014 83.3288C194.491 81.3871 194.453 79.3659 193.902 77.4414C193.856 77.2821 193.766 77.1368 193.641 77.0202C193.516 76.9037 193.36 76.8198 193.19 76.7772C193.019 76.7345 192.839 76.7345 192.669 76.7772C192.498 76.8199 192.342 76.9038 192.217 77.0204L185.199 83.5703L179.267 82.4578L178.074 76.9218L185.093 70.3719C185.218 70.2553 185.308 70.11 185.354 69.9507C185.4 69.7914 185.4 69.6237 185.354 69.4644C185.308 69.3051 185.218 69.1598 185.093 69.0432C184.968 68.9265 184.813 68.8427 184.642 68.7999C182.58 68.2857 180.414 68.2497 178.334 68.6951C176.253 69.1404 174.321 70.0536 172.705 71.3551C171.089 72.6566 169.838 74.3071 169.061 76.1627C168.285 78.0184 168.006 80.023 168.25 82.0021C168.289 82.4275 168.226 82.8556 168.065 83.2552C167.904 83.6548 167.649 84.0158 167.319 84.3116L164.88 86.5883L147.032 69.9265C146.377 69.3157 145.6 68.8312 144.745 68.5007C143.89 68.1701 142.973 68 142.048 68C141.122 68 140.206 68.1701 139.351 68.5007C138.496 68.8312 137.719 69.3157 137.064 69.9265C136.41 70.5373 135.891 71.2624 135.536 72.0604C135.182 72.8584 135 73.7137 135 74.5775C135 75.4412 135.182 76.2966 135.536 77.0946C135.891 77.8926 136.41 78.6177 137.064 79.2285L154.918 95.8846L152.479 98.1603C152.163 98.469 151.776 98.7072 151.347 98.8574C150.919 99.0075 150.459 99.0657 150.004 99.0275C147.883 98.8005 145.735 99.0607 143.746 99.7856C141.758 100.51 139.989 101.678 138.595 103.186C137.2 104.695 136.222 106.498 135.745 108.44C135.268 110.382 135.307 112.403 135.858 114.328C135.904 114.487 135.994 114.632 136.119 114.749C136.244 114.866 136.399 114.949 136.57 114.992C136.741 115.035 136.921 115.035 137.091 114.992C137.262 114.949 137.418 114.865 137.543 114.749L144.561 108.199L150.493 109.311L151.691 114.847L144.672 121.397C144.547 121.514 144.457 121.659 144.411 121.818C144.365 121.978 144.365 122.145 144.411 122.305C144.457 122.464 144.546 122.609 144.671 122.726C144.796 122.843 144.952 122.927 145.123 122.969C147.185 123.483 149.35 123.518 151.43 123.072C153.509 122.626 155.441 121.713 157.056 120.412C158.672 119.11 159.922 117.46 160.698 115.605C161.474 113.75 161.753 111.746 161.51 109.767C161.471 109.342 161.534 108.914 161.695 108.514C161.856 108.114 162.111 107.753 162.44 107.458L164.88 105.181L181.895 121.066C182.024 121.186 182.185 121.271 182.362 121.313L193.749 123.972C193.829 123.99 193.911 124 193.993 124C194.146 124 194.297 123.967 194.435 123.905C194.572 123.842 194.693 123.751 194.787 123.638C194.881 123.526 194.946 123.395 194.978 123.255C195.01 123.115 195.007 122.971 194.97 122.832L194.973 122.829ZM187.481 120.568L183.612 119.664V116.231L185.968 116.671C186.131 116.702 186.299 116.694 186.458 116.649C186.616 116.604 186.761 116.524 186.878 116.414C186.995 116.305 187.082 116.17 187.13 116.022C187.178 115.874 187.186 115.717 187.153 115.565L186.681 113.367H190.36L191.327 116.977C190.461 117.304 189.674 117.791 189.014 118.408C188.353 119.025 187.832 119.759 187.481 120.568ZM184.525 112.891L184.882 114.552L183.103 114.22L149.174 82.5555L150.593 81.227L184.525 112.891ZM168.743 85.643C169.287 85.147 169.705 84.5435 169.966 83.8768C170.228 83.2102 170.326 82.4973 170.253 81.7907C170.065 80.2602 170.245 78.7098 170.781 77.2526C171.317 75.7954 172.194 74.4683 173.35 73.3682C174.506 72.268 175.91 71.4226 177.46 70.8937C179.011 70.3647 180.668 70.1656 182.311 70.3108L176.271 75.9483C176.153 76.0579 176.067 76.1929 176.019 76.3413C175.971 76.4896 175.963 76.6468 175.996 76.7987L177.427 83.4406C177.465 83.6223 177.561 83.7891 177.701 83.9202C177.842 84.0512 178.02 84.1407 178.215 84.1773L185.332 85.5106C185.495 85.5412 185.663 85.5339 185.822 85.4891C185.981 85.4444 186.126 85.3636 186.243 85.2541L192.284 79.6165C192.44 81.1502 192.227 82.697 191.661 84.1441C191.094 85.5912 190.189 86.902 189.011 87.9808C187.832 89.0596 186.41 89.8791 184.849 90.3797C183.288 90.8802 181.627 91.049 179.987 90.8738C179.23 90.8063 178.466 90.8978 177.752 91.1417C177.037 91.3856 176.391 91.7756 175.859 92.2831L173.417 94.556L170.561 91.8904C170.581 91.8744 170.607 91.8688 170.626 91.8509L174.653 88.0926C174.836 87.9154 174.938 87.678 174.935 87.4317C174.933 87.1853 174.827 86.9496 174.641 86.7754C174.454 86.6012 174.201 86.5024 173.937 86.5003C173.673 86.4981 173.419 86.5928 173.229 86.764L169.202 90.5223C169.183 90.5402 169.177 90.5637 169.16 90.5825L166.303 87.9169L168.743 85.643ZM153.44 78.5651L188.713 111.487H185.87L152.016 79.8937L153.44 78.5651ZM138.489 77.8989C138.018 77.4634 137.644 76.9453 137.388 76.3745C137.133 75.8037 137 75.1914 136.999 74.5727C136.997 73.9541 137.127 73.3412 137.38 72.7694C137.633 72.1975 138.005 71.678 138.473 71.2405C138.942 70.803 139.499 70.4563 140.111 70.2201C140.724 69.984 141.381 69.8632 142.044 69.8645C142.707 69.8659 143.363 69.9894 143.974 70.228C144.586 70.4667 145.141 70.8157 145.608 71.2551L147.743 73.248L140.624 79.8918L138.489 77.8989ZM142.048 81.2213L149.168 74.5765L152.015 77.2346L144.895 83.8785L142.048 81.2213ZM161.017 106.126C160.473 106.622 160.055 107.226 159.793 107.892C159.532 108.559 159.434 109.272 159.507 109.978C159.695 111.509 159.515 113.059 158.979 114.517C158.443 115.974 157.565 117.301 156.41 118.401C155.254 119.501 153.85 120.347 152.3 120.876C150.749 121.404 149.092 121.604 147.448 121.458L153.489 115.821C153.607 115.711 153.693 115.576 153.741 115.428C153.79 115.28 153.798 115.122 153.765 114.971L152.335 108.328C152.296 108.146 152.201 107.979 152.06 107.848C151.92 107.717 151.742 107.628 151.547 107.591L144.429 106.258C144.267 106.228 144.1 106.236 143.942 106.28C143.784 106.325 143.64 106.405 143.523 106.514L137.482 112.152C137.326 110.618 137.539 109.072 138.105 107.625C138.672 106.178 139.577 104.867 140.755 103.789C141.934 102.71 143.355 101.89 144.916 101.39C146.477 100.889 148.138 100.72 149.778 100.895C150.535 100.964 151.299 100.873 152.014 100.629C152.728 100.385 153.375 99.9944 153.906 99.4861L156.345 97.2094L159.201 99.875C159.181 99.891 159.156 99.8967 159.137 99.9145L155.11 103.673C155.014 103.76 154.937 103.863 154.884 103.978C154.832 104.092 154.804 104.216 154.803 104.341C154.802 104.465 154.827 104.589 154.878 104.705C154.928 104.82 155.003 104.925 155.098 105.013C155.192 105.101 155.304 105.171 155.428 105.218C155.552 105.266 155.684 105.289 155.818 105.288C155.952 105.287 156.084 105.261 156.207 105.212C156.33 105.163 156.441 105.091 156.534 105.001L160.561 101.243C160.58 101.225 160.586 101.202 160.603 101.184L163.459 103.849L161.017 106.126ZM146.319 85.2108L147.745 83.8794L181.599 115.474V118.127L146.319 85.2108ZM189.47 121.032C189.949 120.06 190.785 119.281 191.826 118.833L192.612 121.766L189.47 121.032Z" fill="#FF0266"/>
</g>
</g>
<g id="contact">
<rect x="244" y="417" width="70" height="55" fill="#FFDE03"/>
<g id="contact_2">
<path id="Vector_21" d="M266.925 443.992C270.494 443.992 273.388 441.049 273.388 437.419C273.388 433.79 270.494 430.847 266.925 430.847C263.356 430.847 260.463 433.79 260.463 437.419C260.467 441.047 263.358 443.987 266.925 443.992ZM266.925 433.403C269.113 433.403 270.888 435.206 270.888 437.432C270.888 439.658 269.113 441.462 266.925 441.462C264.736 441.462 262.963 439.658 262.963 437.432C262.963 435.207 264.737 433.403 266.925 433.403Z" fill="#FF0266"/>
<path id="Vector_22" d="M266.925 446.419C264.281 446.4 261.743 447.479 259.9 449.407C258.025 451.352 257 453.996 257 456.869C257.002 457.57 257.561 458.138 258.25 458.14H275.6C276.289 458.138 276.848 457.57 276.85 456.869C276.85 453.996 275.825 451.352 273.95 449.407C272.107 447.479 269.57 446.4 266.925 446.419ZM259.588 455.597C259.802 453.935 260.538 452.389 261.688 451.186C263.071 449.763 264.957 448.962 266.925 448.962C268.893 448.962 270.779 449.763 272.163 451.186C273.309 452.39 274.046 453.936 274.263 455.597H259.588Z" fill="#FF0266"/>
<path id="Vector_23" d="M302.75 422H255.25C251.799 422.002 249.002 424.846 249 428.356V460.644C249.002 464.154 251.799 466.998 255.25 467H302.75C306.201 466.998 308.998 464.154 309 460.644V428.356C308.998 424.846 306.201 422.002 302.75 422ZM306.5 460.644C306.494 462.747 304.818 464.452 302.75 464.458H255.25C253.182 464.452 251.506 462.747 251.5 460.644V428.356C251.506 426.253 253.182 424.548 255.25 424.542H302.75C304.818 424.548 306.494 426.253 306.5 428.356V460.644Z" fill="#FF0266"/>
<path id="Vector_24" d="M299.675 443.229H285.112C284.422 443.229 283.862 443.798 283.862 444.5C283.862 445.202 284.422 445.771 285.112 445.771H299.675C300.365 445.771 300.925 445.202 300.925 444.5C300.925 443.798 300.365 443.229 299.675 443.229Z" fill="#FF0266"/>
<path id="Vector_25" d="M299.675 451.364H285.112C284.422 451.364 283.862 451.933 283.862 452.636C283.862 453.338 284.422 453.907 285.112 453.907H299.675C300.365 453.907 300.925 453.338 300.925 452.636C300.925 451.933 300.365 451.364 299.675 451.364Z" fill="#FF0266"/>
<path id="Vector_26" d="M299.675 435.093H285.112C284.422 435.093 283.862 435.662 283.862 436.364C283.862 437.067 284.422 437.636 285.112 437.636H299.675C300.365 437.636 300.925 437.067 300.925 436.364C300.925 435.662 300.365 435.093 299.675 435.093Z" fill="#FF0266"/>
</g>
</g>
<g id="hobbies">
<rect x="10" y="417" width="70" height="55" fill="#FFDE03"/>
<g id="hobbies_2">
<path id="Vector_27" d="M25.3139 466.771C25.7922 466.871 26.2481 466.494 26.3329 465.928C26.418 465.362 26.0994 464.822 25.6215 464.722C20.4856 463.641 16.7578 458.365 16.7578 452.177C16.7578 445.152 21.5849 439.436 27.5184 439.436C28.9336 439.436 30.2857 439.762 31.5245 440.353L30.9881 441.624C29.9116 441.126 28.7421 440.849 27.5184 440.849C22.2432 440.849 17.9515 445.931 17.9515 452.177C17.9515 458.424 22.2432 463.505 27.5184 463.505C32.4972 463.505 36.5979 458.978 37.0433 453.218H38.242C37.8509 458.948 34.2606 463.702 29.4153 464.722C28.9375 464.822 28.6188 465.362 28.7039 465.928C28.7796 466.433 29.1502 466.787 29.5682 466.787C29.6193 466.787 29.6711 466.782 29.723 466.771C34.6465 465.734 38.4551 461.385 39.6452 455.86C40.1939 456.459 40.876 456.889 41.6322 457.079V459.206H40.8623C40.3768 459.206 39.9834 459.672 39.9834 460.247C39.9834 460.821 40.3768 461.287 40.8623 461.287H44.16C44.6455 461.287 45.0389 460.821 45.0389 460.247C45.0389 459.672 44.6455 459.206 44.16 459.206H43.3902V457.079C45.3033 456.599 46.7433 454.584 46.7433 452.177C46.7433 451.056 46.4305 450.019 45.9029 449.184L56.299 435.55L57.2898 438.691C52.9712 441.031 49.9632 446.196 49.9632 452.177C49.9632 460.351 55.5789 467 62.4816 467C69.3842 467 75 460.351 75 452.177C75 444.004 69.3842 437.355 62.4816 437.355C61.2505 437.355 60.0607 437.567 58.936 437.961L55.9272 428.421H60.9628C61.3102 429.423 62.1417 430.13 63.111 430.13C63.2991 430.13 63.4521 430.311 63.4521 430.534C63.4521 430.757 63.2991 430.938 63.111 430.938H62.0412C60.7608 430.938 59.7191 432.172 59.7191 433.688C59.7191 435.203 60.7609 436.437 62.0412 436.437H63.111C65.86 436.437 68.0964 433.789 68.0964 430.534C68.0964 427.279 65.86 424.631 63.111 424.631C62.1417 424.631 61.3102 425.339 60.9628 426.34H54.6608C54.0598 426.34 53.6204 427.054 53.8374 427.744L54.7289 430.571H36.8044L36.2449 428.797C36.6013 428.535 36.9047 428.17 37.1187 427.724C37.2595 427.431 37.5241 427.248 37.8093 427.248H41.5467C42.581 427.248 43.2857 426.006 42.896 424.873L42.8959 424.872C42.2954 423.128 40.8791 422 39.2877 422H30.2835C29.0826 422 28.1058 423.157 28.1058 424.579C28.1058 427.156 29.8768 429.253 32.0538 429.253H34.5125L35.2373 431.551L32.3122 438.485C30.835 437.757 29.2158 437.354 27.5185 437.354C20.6158 437.355 15 444.004 15 452.177C15 459.375 19.3376 465.513 25.3139 466.771ZM62.4816 439.436C68.4151 439.436 73.2422 445.152 73.2422 452.177C73.2422 459.203 68.4151 464.919 62.4816 464.919C56.5481 464.919 51.721 459.203 51.721 452.177C51.721 447.088 54.2546 442.686 57.9067 440.647L58.3257 441.975C55.1264 443.81 52.9148 447.694 52.9148 452.177C52.9148 458.424 57.2065 463.505 62.4817 463.505C66.9135 463.505 70.7363 459.946 71.7783 454.851C71.8925 454.292 71.6027 453.73 71.1309 453.594C70.659 453.459 70.1841 453.802 70.0699 454.361C69.2196 458.519 66.0992 461.424 62.4817 461.424C58.1758 461.424 54.6726 457.276 54.6726 452.177C54.6726 448.586 56.412 445.468 58.9447 443.938L60.8195 449.882C60.2733 450.437 59.9262 451.26 59.9262 452.177C59.9262 453.846 61.0725 455.203 62.4817 455.203C63.8909 455.203 65.0373 453.846 65.0373 452.177C65.0373 450.509 63.8909 449.152 62.4817 449.152C62.4763 449.152 62.471 449.152 62.4658 449.152L60.5906 443.206C61.1965 443.027 61.8297 442.931 62.4818 442.931C66.0993 442.931 69.2197 445.835 70.07 449.994C70.1843 450.552 70.659 450.895 71.131 450.76C71.6028 450.625 71.8926 450.063 71.7784 449.504C70.7365 444.408 66.9135 440.849 62.4818 440.849C61.6136 440.849 60.773 440.989 59.9728 441.247L59.5529 439.916C60.4841 439.604 61.4666 439.436 62.4816 439.436ZM62.4816 451.233C62.9215 451.233 63.2794 451.657 63.2794 452.178C63.2794 452.698 62.9215 453.122 62.4816 453.122C62.0418 453.122 61.6839 452.698 61.6839 452.178C61.6839 451.657 62.0418 451.233 62.4816 451.233ZM33.0961 441.285C35.965 443.352 37.9566 446.964 38.2429 451.137H37.0433C36.7633 447.516 35.0392 444.384 32.5599 442.556L33.0961 441.285ZM29.9182 451.137C29.7977 450.749 29.6114 450.398 29.3762 450.103L31.7704 444.428C33.6773 445.9 35.0099 448.329 35.2768 451.137H29.9182ZM27.5184 451.233C27.9582 451.233 28.3161 451.657 28.3161 452.178C28.3161 452.698 27.9582 453.122 27.5184 453.122C27.0785 453.122 26.7206 452.698 26.7206 452.178C26.7206 451.657 27.0785 451.233 27.5184 451.233ZM27.5184 461.424C23.2126 461.424 19.7093 457.276 19.7093 452.177C19.7093 447.079 23.2126 442.931 27.5184 442.931C28.46 442.931 29.3632 443.129 30.1998 443.493L27.8041 449.171C27.7103 449.158 27.615 449.152 27.5184 449.152C26.1093 449.152 24.9628 450.509 24.9628 452.177C24.9628 453.846 26.1092 455.203 27.5184 455.203C28.6188 455.203 29.559 454.376 29.9182 453.218H35.2768C34.8384 457.828 31.5271 461.424 27.5184 461.424ZM43.3902 454.913V452.177C43.3902 451.603 42.9968 451.137 42.5113 451.137C42.0258 451.137 41.6324 451.603 41.6324 452.177V454.913C40.7012 454.492 40.037 453.426 40.037 452.177C40.037 450.562 41.147 449.248 42.5113 449.248C43.8756 449.248 44.9855 450.562 44.9855 452.177C44.9855 453.426 44.3212 454.492 43.3902 454.913ZM63.111 426.713C64.8907 426.713 66.3386 428.427 66.3386 430.534C66.3386 432.642 64.8907 434.356 63.111 434.356H62.0412C61.7301 434.356 61.4769 434.056 61.4769 433.688C61.4769 433.32 61.7301 433.02 62.0412 433.02H63.111C64.2684 433.02 65.21 431.905 65.21 430.535C65.21 429.164 64.2684 428.049 63.111 428.049C62.7999 428.049 62.5467 427.749 62.5467 427.381C62.5467 427.013 62.7999 426.713 63.111 426.713ZM55.3852 432.653L55.606 433.353L44.5823 447.81C43.9697 447.401 43.2634 447.166 42.5114 447.166C42.3548 447.166 42.2005 447.177 42.0483 447.197L37.461 432.653H55.3852V432.653ZM29.8635 424.579C29.8635 424.305 30.0518 424.082 30.2834 424.082H39.2875C40.0009 424.082 40.6501 424.495 41.0436 425.168H37.8092C36.893 425.168 36.0428 425.754 35.5902 426.697C35.4494 426.99 35.1847 427.173 34.8994 427.173H32.0536C30.8461 427.173 29.8635 426.009 29.8635 424.579ZM36.0779 434.217L40.3783 447.852C40.1146 448.035 39.869 448.25 39.6457 448.494C38.8115 444.646 36.7013 441.397 33.8836 439.419L36.0779 434.217Z" fill="#FF0266"/>
</g>
</g>
</g>
<defs>
<clipPath id="clip0">
<rect width="20" height="20" fill="white" transform="translate(31 58)"/>
</clipPath>
</defs>
</svg>
