<svg width="50" height="50" viewBox="0 0 50 50" fill="none" xmlns="http://www.w3.org/2000/svg">
<path d="M39.3595 1.39979V1.39463C38.472 0.502454 37.2656 0.000516529 36.0072 0H13.9876C11.3723 0.00852273 9.25437 2.12642 9.24585 4.74174V45.2531C9.24637 46.5115 9.7483 47.7178 10.6405 48.6054C11.5267 49.4963 12.731 49.9981 13.9876 50H36.0124C37.269 49.9981 38.4732 49.4963 39.3595 48.6054C40.2504 47.7191 40.7522 46.5149 40.7541 45.2583V4.7469C40.7522 3.49031 40.2504 2.28603 39.3595 1.39979ZM25 46.782C24.2925 46.782 23.719 46.2085 23.719 45.501C23.719 44.7935 24.2925 44.22 25 44.22C25.7075 44.22 26.281 44.7935 26.281 45.501C26.281 46.2085 25.7075 46.782 25 46.782ZM36.9886 38.7397C36.9886 40.4513 35.6011 41.8388 33.8894 41.8388H16.1054C14.3937 41.8388 13.0062 40.4513 13.0062 38.7397V8.54855C13.0062 6.83691 14.3937 5.44938 16.1054 5.44938H33.8946C35.6063 5.44938 36.9938 6.83691 36.9938 8.54855L36.9886 38.7397Z" fill="black"/>
<path d="M22.9322 23.9105C23.3748 23.468 23.3748 22.748 22.9322 22.3054L21.3759 20.7491C21.1379 20.511 20.8078 20.3904 20.4708 20.4181C20.1402 20.4453 19.8412 20.6139 19.6504 20.8805C19.6108 20.9358 19.5726 20.9919 19.5352 21.0485L22.6647 24.178L22.9322 23.9105Z" fill="black"/>
<path d="M29.3542 28.7274L27.7978 27.1711C27.3553 26.7286 26.6353 26.7285 26.1927 27.1711L25.9252 27.4386L29.0548 30.5683C29.1114 30.5308 29.1675 30.4924 29.2228 30.4529C29.4894 30.2621 29.6579 29.9631 29.6851 29.6325C29.7129 29.2954 29.5922 28.9655 29.3542 28.7274Z" fill="black"/>
<path d="M24.8553 28.0385C24.5521 28.0385 24.2671 27.9204 24.0528 27.7061L22.3972 26.0506C22.1829 25.8362 22.0648 25.5512 22.0648 25.248C22.0648 25.0758 22.103 24.9095 22.1752 24.7586L19.1486 21.732C18.7229 22.6259 18.5345 23.6274 18.6122 24.6327C18.717 25.9873 19.3011 27.2598 20.2572 28.2158L21.8875 29.8462C22.8435 30.8022 24.116 31.3863 25.4706 31.4911C25.6187 31.5026 25.7666 31.5082 25.9141 31.5082C26.7685 31.5082 27.609 31.3178 28.3713 30.9547L25.3447 27.9281C25.1938 28.0003 25.0275 28.0385 24.8553 28.0385Z" fill="black"/>
<path d="M26.2118 18.595C26.0029 18.595 25.8335 18.7644 25.8335 18.9734C25.8335 19.1823 26.0029 19.3517 26.2118 19.3517C28.7151 19.3517 30.7516 21.3882 30.7516 23.8915C30.7516 24.1004 30.921 24.2698 31.1299 24.2698C31.3389 24.2698 31.5083 24.1004 31.5083 23.8915C31.5083 20.971 29.1323 18.595 26.2118 18.595Z" fill="black"/>
<path d="M26.2118 23.8911C26.2118 23.8911 26.2118 23.8913 26.2118 23.8915C26.2118 24.1004 26.3812 24.2698 26.5901 24.2698C26.7991 24.2698 26.9684 24.1004 26.9684 23.8915C26.9684 23.4743 26.629 23.1348 26.2118 23.1348C26.0029 23.1348 25.8335 23.3041 25.8335 23.513C25.8335 23.7219 26.0029 23.8911 26.2118 23.8911Z" fill="black"/>
<path d="M26.2118 22.3782C27.0462 22.3782 27.7251 23.0571 27.7251 23.8915C27.7251 24.1004 27.8945 24.2698 28.1034 24.2698C28.3123 24.2698 28.4817 24.1004 28.4817 23.8915C28.4817 22.6399 27.4634 21.6216 26.2118 21.6216C26.0029 21.6216 25.8335 21.791 25.8335 21.9999C25.8335 22.2088 26.0029 22.3782 26.2118 22.3782Z" fill="black"/>
<path d="M26.2118 20.1083C26.0029 20.1083 25.8335 20.2777 25.8335 20.4866C25.8335 20.6956 26.0029 20.8649 26.2118 20.8649C27.8806 20.8649 29.2384 22.2226 29.2384 23.8915C29.2384 24.1004 29.4077 24.2698 29.6167 24.2698C29.8256 24.2698 29.995 24.1004 29.995 23.8915C29.995 21.8054 28.2979 20.1083 26.2118 20.1083Z" fill="black"/>
</svg>
